<svg width="40" height="40" viewBox="0 0 40 40" fill="none" xmlns="http://www.w3.org/2000/svg">
<path d="M18.1625 26.8375C18.3381 27.0133 18.4367 27.2516 18.4367 27.5C18.4367 27.7484 18.3381 27.9867 18.1625 28.1625L13.1625 33.1625C12.9867 33.3381 12.7484 33.4367 12.5 33.4367C12.2516 33.4367 12.0133 33.3381 11.8375 33.1625L6.83749 28.1625C6.67189 27.9848 6.58174 27.7497 6.58602 27.5068C6.59031 27.264 6.6887 27.0322 6.86046 26.8605C7.03223 26.6887 7.26396 26.5903 7.50684 26.586C7.74971 26.5817 7.98477 26.6719 8.16249 26.8375L11.5625 30.2359V7.5C11.5625 7.25136 11.6613 7.0129 11.8371 6.83709C12.0129 6.66127 12.2514 6.5625 12.5 6.5625C12.7486 6.5625 12.9871 6.66127 13.1629 6.83709C13.3387 7.0129 13.4375 7.25136 13.4375 7.5V30.2359L16.8375 26.8375C17.0133 26.6619 17.2516 26.5633 17.5 26.5633C17.7484 26.5633 17.9867 26.6619 18.1625 26.8375ZM33.1625 11.8375L28.1625 6.8375C27.9867 6.66194 27.7484 6.56332 27.5 6.56332C27.2516 6.56332 27.0133 6.66194 26.8375 6.8375L21.8375 11.8375C21.6719 12.0152 21.5817 12.2503 21.586 12.4932C21.5903 12.736 21.6887 12.9678 21.8605 13.1395C22.0322 13.3113 22.264 13.4097 22.5068 13.414C22.7497 13.4183 22.9848 13.3281 23.1625 13.1625L26.5625 9.76406V32.5C26.5625 32.7486 26.6613 32.9871 26.8371 33.1629C27.0129 33.3387 27.2514 33.4375 27.5 33.4375C27.7486 33.4375 27.9871 33.3387 28.1629 33.1629C28.3387 32.9871 28.4375 32.7486 28.4375 32.5V9.76406L31.8375 13.1625C32.0152 13.3281 32.2503 13.4183 32.4931 13.414C32.736 13.4097 32.9678 13.3113 33.1395 13.1395C33.3113 12.9678 33.4097 12.736 33.414 12.4932C33.4182 12.2503 33.3281 12.0152 33.1625 11.8375Z" fill="black"/>
</svg>
