<svg width="40" height="40" viewBox="0 0 40 40" fill="none" xmlns="http://www.w3.org/2000/svg">
<path d="M16.25 6.5625H8.75C8.16984 6.5625 7.61344 6.79297 7.2032 7.2032C6.79297 7.61344 6.5625 8.16984 6.5625 8.75V16.25C6.5625 16.5373 6.61908 16.8217 6.72901 17.0871C6.83895 17.3525 7.00008 17.5937 7.2032 17.7968C7.40633 17.9999 7.64748 18.1611 7.91288 18.271C8.17828 18.3809 8.46273 18.4375 8.75 18.4375H16.25C16.5373 18.4375 16.8217 18.3809 17.0871 18.271C17.3525 18.1611 17.5937 17.9999 17.7968 17.7968C17.9999 17.5937 18.1611 17.3525 18.271 17.0871C18.3809 16.8217 18.4375 16.5373 18.4375 16.25V8.75C18.4375 8.46273 18.3809 8.17828 18.271 7.91288C18.1611 7.64748 17.9999 7.40633 17.7968 7.2032C17.5937 7.00008 17.3525 6.83895 17.0871 6.72901C16.8217 6.61908 16.5373 6.5625 16.25 6.5625ZM16.5625 16.25C16.5625 16.3329 16.5296 16.4124 16.471 16.471C16.4124 16.5296 16.3329 16.5625 16.25 16.5625H8.75C8.66712 16.5625 8.58763 16.5296 8.52903 16.471C8.47042 16.4124 8.4375 16.3329 8.4375 16.25V8.75C8.4375 8.66712 8.47042 8.58763 8.52903 8.52903C8.58763 8.47042 8.66712 8.4375 8.75 8.4375H16.25C16.3329 8.4375 16.4124 8.47042 16.471 8.52903C16.5296 8.58763 16.5625 8.66712 16.5625 8.75V16.25ZM31.25 6.5625H23.75C23.1698 6.5625 22.6134 6.79297 22.2032 7.2032C21.793 7.61344 21.5625 8.16984 21.5625 8.75V16.25C21.5625 16.5373 21.6191 16.8217 21.729 17.0871C21.8389 17.3525 22.0001 17.5937 22.2032 17.7968C22.4063 17.9999 22.6475 18.1611 22.9129 18.271C23.1783 18.3809 23.4627 18.4375 23.75 18.4375H31.25C31.5373 18.4375 31.8217 18.3809 32.0871 18.271C32.3525 18.1611 32.5937 17.9999 32.7968 17.7968C32.9999 17.5937 33.1611 17.3525 33.271 17.0871C33.3809 16.8217 33.4375 16.5373 33.4375 16.25V8.75C33.4375 8.16984 33.207 7.61344 32.7968 7.2032C32.3866 6.79297 31.8302 6.5625 31.25 6.5625ZM31.5625 16.25C31.5625 16.3329 31.5296 16.4124 31.471 16.471C31.4124 16.5296 31.3329 16.5625 31.25 16.5625H23.75C23.6671 16.5625 23.5876 16.5296 23.529 16.471C23.4704 16.4124 23.4375 16.3329 23.4375 16.25V8.75C23.4375 8.66712 23.4704 8.58763 23.529 8.52903C23.5876 8.47042 23.6671 8.4375 23.75 8.4375H31.25C31.3329 8.4375 31.4124 8.47042 31.471 8.52903C31.5296 8.58763 31.5625 8.66712 31.5625 8.75V16.25ZM16.25 21.5625H8.75C8.16984 21.5625 7.61344 21.793 7.2032 22.2032C6.79297 22.6134 6.5625 23.1698 6.5625 23.75V31.25C6.5625 31.8302 6.79297 32.3866 7.2032 32.7968C7.61344 33.207 8.16984 33.4375 8.75 33.4375H16.25C16.5373 33.4375 16.8217 33.3809 17.0871 33.271C17.3525 33.1611 17.5937 32.9999 17.7968 32.7968C17.9999 32.5937 18.1611 32.3525 18.271 32.0871C18.3809 31.8217 18.4375 31.5373 18.4375 31.25V23.75C18.4375 23.4627 18.3809 23.1783 18.271 22.9129C18.1611 22.6475 17.9999 22.4063 17.7968 22.2032C17.5937 22.0001 17.3525 21.8389 17.0871 21.729C16.8217 21.6191 16.5373 21.5625 16.25 21.5625ZM16.5625 31.25C16.5625 31.3329 16.5296 31.4124 16.471 31.471C16.4124 31.5296 16.3329 31.5625 16.25 31.5625H8.75C8.66712 31.5625 8.58763 31.5296 8.52903 31.471C8.47042 31.4124 8.4375 31.3329 8.4375 31.25V23.75C8.4375 23.6671 8.47042 23.5876 8.52903 23.529C8.58763 23.4704 8.66712 23.4375 8.75 23.4375H16.25C16.3329 23.4375 16.4124 23.4704 16.471 23.529C16.5296 23.5876 16.5625 23.6671 16.5625 23.75V31.25ZM31.25 21.5625H23.75C23.1698 21.5625 22.6134 21.793 22.2032 22.2032C21.793 22.6134 21.5625 23.1698 21.5625 23.75V31.25C21.5625 31.8302 21.793 32.3866 22.2032 32.7968C22.6134 33.207 23.1698 33.4375 23.75 33.4375H31.25C31.8302 33.4375 32.3866 33.207 32.7968 32.7968C33.207 32.3866 33.4375 31.8302 33.4375 31.25V23.75C33.4375 23.1698 33.207 22.6134 32.7968 22.2032C32.3866 21.793 31.8302 21.5625 31.25 21.5625ZM31.5625 31.25C31.5625 31.3329 31.5296 31.4124 31.471 31.471C31.4124 31.5296 31.3329 31.5625 31.25 31.5625H23.75C23.6671 31.5625 23.5876 31.5296 23.529 31.471C23.4704 31.4124 23.4375 31.3329 23.4375 31.25V23.75C23.4375 23.6671 23.4704 23.5876 23.529 23.529C23.5876 23.4704 23.6671 23.4375 23.75 23.4375H31.25C31.3329 23.4375 31.4124 23.4704 31.471 23.529C31.5296 23.5876 31.5625 23.6671 31.5625 23.75V31.25Z" fill="black"/>
</svg>
